<svg width="45" height="43" viewBox="0 0 45 43" fill="none" xmlns="http://www.w3.org/2000/svg">
<path d="M20.083 0.0923843C15.1348 0.37793 10.7578 1.0918 7.2334 2.19199C5.72168 2.6623 5.09766 3.01504 4.40332 3.7541C3.84082 4.35039 3.46289 5.03906 3.25195 5.84531C3.08496 6.4752 3.07617 6.81113 3.07617 15.9318C3.07617 22.0879 3.11133 25.6488 3.17285 26.1779C3.50684 29.0586 4.8252 31.091 6.77637 31.7041L7.20703 31.8469V36.8775C7.20703 42.4625 7.18945 42.2861 7.78711 42.7144L8.1123 42.958L20.5576 42.9832C29.1182 43 33.0996 42.9832 33.3281 42.916C33.5039 42.874 33.7676 42.6977 33.917 42.5381C34.5762 41.8158 34.3916 40.8584 33.4863 40.4133L33.0996 40.2285H21.6035H10.1074V38.3809V36.5248L10.3975 36.5752C10.5469 36.6004 15.6885 37.2051 21.8145 37.9189C33.6094 39.2879 33.2754 39.2543 33.7852 38.8764C34.3125 38.4732 34.3213 38.4564 34.3477 35.0467L34.374 31.9309L34.7432 31.8721C35.3672 31.7713 36.4834 31.4018 37.1777 31.0742C39.4893 29.9656 41.0273 27.9416 41.6777 25.1785C41.8535 24.4227 41.8799 24.0951 41.8799 22.5498C41.8711 20.6518 41.7744 19.9379 41.335 18.6109C40.6406 16.5113 39.208 14.8652 37.3711 14.0758L37.002 13.9162V9.37265C37.002 5.03066 36.9932 4.79551 36.8174 4.19922C36.5537 3.26699 36.167 2.63711 35.4639 1.97363C34.251 0.823048 33.416 0.579494 29.5312 0.251953C26.5605 0.00839996 22.7109 -0.0587883 20.083 0.0923843ZM29.1357 2.97305C32.3701 3.26699 32.8008 3.35098 33.3721 3.82129C33.5654 3.98086 33.8203 4.3084 33.9346 4.55195L34.1455 4.99707L34.1719 9.17109L34.1982 13.3535H31.7373H29.2764L29.25 11.1783C29.2236 9.1207 29.2148 8.98632 29.0391 8.75957C28.7227 8.35644 28.3184 8.14648 27.8438 8.14648C27.3164 8.14648 26.9824 8.30605 26.6572 8.70918L26.4111 9.01152L26.3672 11.3211L26.3232 13.6223L25.9014 13.7818C24.4863 14.3109 23.3789 15.5371 23.0186 16.9648C22.8955 17.4603 22.8604 18.6277 22.9658 18.9973C23.0186 19.1904 23.0098 19.2156 22.8252 19.1652C22.5264 19.0896 21.7617 18.3086 21.6211 17.9307C21.5332 17.6703 21.4893 16.6457 21.4541 13.1687C21.4014 8.84355 21.4014 8.74277 21.2168 8.50762C20.6279 7.76015 19.4414 7.76015 18.8789 8.49922L18.6768 8.77636L18.624 13.1855C18.5713 18.0734 18.5801 17.9727 17.9824 18.6193C17.1914 19.476 15.75 19.6271 14.7041 18.9553C14.3877 18.7537 14.2119 18.5521 14.0186 18.1826L13.7549 17.6787L13.7109 13.807L13.667 9.93535L13.4121 9.62461C12.7529 8.80156 11.417 8.92754 10.9775 9.85976C10.8281 10.1789 10.8105 10.498 10.8105 14.8736V19.5432L10.4854 19.6355C9.53613 19.8959 8.5166 19.8119 7.60254 19.4088C6.91699 19.1064 6.5127 18.7621 6.24023 18.2498L6.02051 17.8467L5.99414 13.9246L5.96777 10.0025L7.19824 9.62461C10.9863 8.44043 15.2666 7.65098 19.8193 7.29824C22.4648 7.09668 28.5117 7.23945 30.8496 7.55859C31.8604 7.70137 32.458 7.66777 32.7832 7.44941C33.2842 7.13027 33.4424 6.85313 33.4424 6.29883C33.4424 5.9293 33.3984 5.74453 33.2578 5.56816C32.9766 5.20703 32.5723 4.98027 32.1064 4.92988C27.2285 4.3252 21.3662 4.2916 16.7432 4.8207C13.667 5.17344 10.3359 5.83691 7.36523 6.68516C6.63574 6.89512 6.02051 7.04629 6.00293 7.0211C5.88867 6.92031 6.09082 6.20644 6.32812 5.85371C6.65332 5.3666 7.04004 5.13145 8.08594 4.80391C11.3994 3.7625 15.249 3.14941 20.4785 2.82188C21.6475 2.74629 27.8174 2.85547 29.1357 2.97305ZM34.9365 16.251C36.8877 16.5785 38.2061 17.8719 38.7598 19.9883C38.9004 20.4922 38.9619 21.0885 38.9971 22.0207L39.0498 23.3309L38.3994 23.4652C38.0391 23.5408 31.8867 24.7334 24.7148 26.1107C16.0576 27.782 11.5928 28.6807 11.3994 28.7814C10.9688 29.025 10.7051 29.5121 10.749 30.0244C10.793 30.7047 11.2324 31.1582 11.9531 31.2758C12.1729 31.3178 15.9873 30.6123 25.2246 28.8234C32.3525 27.4377 38.2061 26.3207 38.2148 26.3375C38.2324 26.3459 38.1006 26.5727 37.9336 26.833C37.2744 27.8072 36.2109 28.5799 35.0332 28.941C33.8291 29.3021 33.293 29.3105 30.2695 28.9998C27.2285 28.6891 27.0615 28.6975 26.5693 29.193C25.9102 29.8564 26.1475 30.965 27.0176 31.3262C27.2549 31.427 28.002 31.5445 29.2236 31.6621C30.2432 31.7545 31.1572 31.8553 31.2715 31.8805L31.4648 31.9141V34.0977V36.2728L31.2275 36.2393C31.0869 36.2141 26.4111 35.6682 20.8301 35.0215C15.249 34.3748 10.5557 33.8289 10.3975 33.8037L10.125 33.7533L10.0898 32.0148C10.0635 30.4611 10.0459 30.2428 9.8877 29.9908C9.61523 29.5541 9.3252 29.3945 8.54297 29.2686C8.14746 29.2014 7.70801 29.0922 7.56738 29.025C6.99609 28.7395 6.46875 27.9164 6.17871 26.8414C5.98535 26.1275 5.89746 21.7016 6.07324 21.7771C6.87305 22.1131 7.37402 22.2727 7.91895 22.3818C8.75391 22.5498 10.2568 22.5498 10.9424 22.3818C11.6455 22.2055 12.4717 21.8191 12.7705 21.5168L13.0254 21.2648L13.7373 21.584C14.625 21.9787 15.2578 22.1047 16.2949 22.0963C17.5254 22.0963 18.624 21.7268 19.582 20.9961L20.0479 20.6518L20.5928 21.0465C21.5859 21.7603 22.6318 22.0963 23.915 22.0963C24.6885 22.0963 24.7236 22.1047 25.1104 22.3902C25.6992 22.8186 26.4639 23.1713 27.2285 23.3561C27.8086 23.4988 28.2041 23.5156 30.4102 23.5156C32.8799 23.5156 32.9414 23.5156 33.2314 23.3225C33.5566 23.1209 33.9258 22.5078 33.9258 22.1719C33.9258 21.8611 33.5742 21.248 33.2842 21.0465C33.0469 20.8785 32.8711 20.8701 30.5596 20.8197C28.292 20.7777 28.0371 20.7525 27.5889 20.5846C26.0068 20.0051 25.2686 18.1742 26.1299 16.9648C26.3584 16.6289 26.7715 16.3853 27.3252 16.2426C27.9316 16.083 34.0049 16.0914 34.9365 16.251Z" fill="#555555"/>
</svg>
