<svg width="45" height="46" viewBox="0 0 45 46" fill="none" xmlns="http://www.w3.org/2000/svg">
<g clip-path="url(#clip0_41_6)">
<path d="M0 23.0001V39.5601H22.5H45V23.0001V6.44006H22.5H0V23.0001ZM43.2 9.47606C43.2 11.1321 24.48 27.6001 22.5 27.6001C20.61 27.6001 2.43 11.6841 1.98 9.66006C1.71 8.46406 4.59 8.28006 22.41 8.28006C38.79 8.28006 43.2 8.55606 43.2 9.47606ZM8.37 18.6761L13.59 23.5521L7.65 28.3361L1.8 33.2121V23.4601C1.8 18.1241 2.07 13.8001 2.52 13.8001C2.88 13.8921 5.49 16.1001 8.37 18.6761ZM43.2 23.4601V33.2121L37.35 28.3361C34.11 25.7601 31.5 23.5521 31.5 23.4601C31.5 23.1841 42.48 13.8001 42.84 13.8001C43.02 13.8001 43.2 18.1241 43.2 23.4601ZM22.5 29.4401C23.22 29.4401 25.29 28.4281 27.09 27.2321L30.24 25.0241L36.72 30.1761C40.32 32.9361 43.2 35.7881 43.2 36.4321C43.2 37.4441 39.33 37.7201 22.41 37.7201C4.95 37.7201 1.71 37.5361 1.98 36.4321C2.16 35.6961 5.04 32.8441 8.46 30.0841L14.67 25.0241L17.91 27.2321C19.71 28.4281 21.78 29.4401 22.5 29.4401Z" fill="#555555"/>
</g>
<defs>
<clipPath id="clip0_41_6">
<rect width="45" height="46" fill="white"/>
</clipPath>
</defs>
</svg>
